<?xml version="1.0" encoding="utf-8"?>
<svg version="1.1" id="svg2" width="864" height="864" viewBox="0 0 864 864" xmlns="http://www.w3.org/2000/svg">
  <defs id="defs6">
    <clipPath clipPathUnits="userSpaceOnUse" id="clipPath18">
      <path d="M 0,648 H 648 V 0 H 0 Z" id="path16"/>
    </clipPath>
    <clipPath clipPathUnits="userSpaceOnUse" id="clipPath38">
      <path d="m 315.751,334.242 h 0.024 v -0.02 h -0.024 z" id="path36"/>
    </clipPath>
    <clipPath clipPathUnits="userSpaceOnUse" id="clipPath54">
      <path d="m 324.7,321.884 h 2.19 v -1.619 h -2.19 z" id="path52"/>
    </clipPath>
    <clipPath clipPathUnits="userSpaceOnUse" id="clipPath74">
      <path d="m 330.994,383.27 h 0.737 v -0.559 h -0.737 z" id="path72"/>
    </clipPath>
    <clipPath clipPathUnits="userSpaceOnUse" id="clipPath90">
      <path d="m 330.127,383.853 h 0.159 v -0.096 h -0.159 z" id="path88"/>
    </clipPath>
  </defs>
  <g id="g10" transform="matrix(2.990254, 0, 0, -3.773934, -502.40097, 1904.832886)" style="">
    <g id="g12">
      <g id="g14" clip-path="url(#clipPath18)">
        <g id="g20" transform="translate(330.9937,383.2703)">
          <path d="M 0,0 C -0.232,0.169 -0.473,0.337 -0.708,0.487 -0.465,0.336 -0.233,0.167 0,0" style="fill:#ffffff;fill-opacity:1;fill-rule:nonzero;stroke:none" id="path22"/>
        </g>
        <g id="g24" transform="translate(331.7314,382.7111)">
          <path d="M 0,0 C 1.696,-1.375 3.136,-3.059 4.458,-4.39 L 17.598,7.343 -97.28,122.023 v -225.7 h 17.5 v 182.9 L -16.718,17.31 -16.275,16.746 0.401,-0.323 c 0,0 -0.163,0.135 -0.401,0.323" style="fill:#ffffff;fill-opacity:1;fill-rule:nonzero;stroke:none" id="path26"/>
        </g>
        <g id="g28" transform="translate(329.8269,347.0344)">
          <path d="M 0,0 -0.85,1.325 -13.45,21.2 c -0.375,0.475 -0.675,0.975 -0.95,1.475 -0.775,1.475 -1.225,3.175 -1.225,4.95 0,5.875 4.775,10.65 10.65,10.65 0.95,0 1.9,-0.125 2.775,-0.375 0.896,-0.236 1.723,-0.616 2.5,-1.082 -0.199,0.121 -0.39,0.228 -0.549,0.292 l -17.202,13.612 c 0.823,0.593 3.081,1.7 3.081,1.7 -9.25,-4.175 -17.205,-13.997 -17.205,-24.797 0,-4.85 1.3,-9.4 3.575,-13.325 l 0.025,-0.025 0.025,-0.05 1.15,-1.825 0.025,-0.025 14.85,-23.375 c 0,0 -0.838,-0.686 -2.127,-1.793 l 2.166,1.793 8.975,-14.15 c 0,0 -0.012,-0.007 -0.026,-0.016 0.28,-0.345 8.637,-10.695 8.687,-16.034 0.008,-0.85 -0.1,-1.7 -0.3,-2.475 C 5.4,-43.95 5.325,-44.2 5.275,-44.45 4,-48.925 -0.1,-52.2 -4.975,-52.2 c -2.675,0 -5.1,1 -6.975,2.65 -0.275,0.225 -0.525,0.45 -0.775,0.7 -1.875,1.875 -3.075,4.425 -3.15,7.3 -0.025,0.1 -0.025,0.225 -0.025,0.35 0,5.308 7.085,11.544 10.773,14.43 -0.02,-0.015 -0.036,-0.027 -0.056,-0.042 l -8.892,13.999 c -2.641,-2.267 -7.179,-6.304 -10.5,-10.012 -4.958,-5.535 -7.3,-11.275 -7.3,-18.375 0,-7.525 3.1,-14.325 8.1,-19.175 0.3,-0.325 0.6,-0.6 0.925,-0.875 0.4,-0.35 0.8,-0.7 1.225,-1.025 4.55,-3.575 10.3,-5.725 16.55,-5.725 11.125,0 20.65,6.75 24.725,16.375 0.5,1.2 0.925,2.45 1.25,3.725 0.475,2.025 0.75,4.15 0.75,6.35 0,5.975 -2,11.5 -5.325,15.95 l -0.025,0.025 -1.525,2.4 -0.025,0.025 -5.5,8.625 36.825,32.05 V -68 h 17.5 V 58.675 Z" style="fill:#ffffff;fill-opacity:1;fill-rule:nonzero;stroke:none" id="path30"/>
        </g>
        <g id="g32">
          <g id="g34"/>
          <g id="g46">
            <g clip-path="url(#clipPath38)" opacity="0.100006" id="g44">
              <g transform="translate(315.7515,334.2224)" id="g42">
                <path d="M 0,0 V 0 C 0.008,0.006 0.016,0.013 0.023,0.019 Z" style="fill:#000000;fill-opacity:1;fill-rule:nonzero;stroke:none" id="path40"/>
              </g>
            </g>
          </g>
        </g>
        <g id="g48">
          <g id="g50"/>
          <g id="g62">
            <g clip-path="url(#clipPath54)" opacity="0.100006" id="g60">
              <g transform="translate(324.6997,320.2648)" id="g58">
                <path d="M 0,0 C 1.401,1.089 2.068,1.525 2.19,1.603 2.186,1.609 2.177,1.62 2.177,1.62 2.177,1.62 1.297,1.015 0,0" style="fill:#000000;fill-opacity:1;fill-rule:nonzero;stroke:none" id="path56"/>
              </g>
            </g>
          </g>
        </g>
        <g id="g64" transform="translate(324.6997,320.2648)">
          <path d="m 0,0 c 1.297,1.015 2.177,1.62 2.177,1.62 0,0 0.009,-0.011 0.013,-0.017 C 2.205,1.612 2.216,1.62 2.216,1.62 L -6.759,15.77 -8.925,13.977 C -8.932,13.97 -8.94,13.963 -8.948,13.957 l 8.893,-14 C -0.035,-0.027 -0.02,-0.015 0,0" style="fill:#ffffff;fill-opacity:1;fill-rule:nonzero;stroke:none" id="path66"/>
        </g>
        <g id="g68">
          <g id="g70"/>
          <g id="g82">
            <g clip-path="url(#clipPath74)" opacity="0.100006" id="g80">
              <g transform="translate(331.7314,382.7111)" id="g78">
                <path d="M 0,0 C -0.24,0.195 -0.486,0.379 -0.738,0.559 -0.457,0.354 -0.202,0.159 0,0" style="fill:#000000;fill-opacity:1;fill-rule:nonzero;stroke:none" id="path76"/>
              </g>
            </g>
          </g>
        </g>
        <g id="g84">
          <g id="g86"/>
          <g id="g98">
            <g clip-path="url(#clipPath90)" opacity="0.100006" id="g96">
              <g transform="translate(330.2856,383.7568)" id="g94">
                <path d="M 0,0 C -0.052,0.033 -0.105,0.064 -0.158,0.096 -0.105,0.064 -0.054,0.034 0,0" style="fill:#000000;fill-opacity:1;fill-rule:nonzero;stroke:none" id="path92"/>
              </g>
            </g>
          </g>
        </g>
        <g id="g100" transform="translate(329.5776,384.1447)">
          <path d="m 0,0 c 0.159,-0.064 0.35,-0.171 0.55,-0.292 0.053,-0.032 0.106,-0.063 0.158,-0.096 0.235,-0.149 0.476,-0.317 0.708,-0.486 0.251,-0.18 0.498,-0.365 0.738,-0.56 0.237,-0.187 0.401,-0.322 0.401,-0.322 l -16.676,17.068 c 0,0 -2.258,-1.107 -3.081,-1.7 z" style="fill:#ffffff;fill-opacity:1;fill-rule:nonzero;stroke:none" id="path102"/>
        </g>
        <g id="g104" transform="translate(243.8439,147.3199)">
          <path d="M 0,0 -1.147,6.198 H -1.189 L -2.275,0 Z M 2.413,-3.906 H 0.714 l -0.479,2.584 h -2.764 l -0.485,-2.584 h -1.678 l 2.82,13.063 h 1.445 z" style="fill:#a38a7b;fill-opacity:1;fill-rule:nonzero;stroke:none" id="path106"/>
        </g>
        <g id="g108" transform="translate(258.4522,150.7457)">
          <path d="M 0,0 C 0.683,0.013 1.177,0.176 1.481,0.486 1.785,0.798 1.937,1.363 1.937,2.184 1.937,2.97 1.799,3.53 1.522,3.865 1.245,4.2 0.771,4.367 0.102,4.367 H 0 Z M 4.029,-7.332 H 2.199 L 0.153,-1.2 H 0 V -7.332 H -1.764 V 5.731 h 2.44 C 2.666,5.731 3.66,4.617 3.66,2.389 3.66,1.377 3.513,0.615 3.219,0.102 2.925,-0.41 2.447,-0.797 1.784,-1.057 Z" style="fill:#a38a7b;fill-opacity:1;fill-rule:nonzero;stroke:none" id="path110"/>
        </g>
        <g id="g112" transform="translate(277.4259,145.8863)">
          <path d="m 0,0 c 0.203,0.437 0.306,1.723 0.306,3.854 0,2.523 -0.138,4.082 -0.41,4.676 -0.275,0.595 -0.719,0.892 -1.334,0.892 -0.691,0 -1.157,-0.349 -1.4,-1.046 -0.242,-0.697 -0.364,-1.88 -0.364,-3.548 0,-2.891 0.139,-4.619 0.417,-5.183 0.277,-0.564 0.693,-0.846 1.248,-0.846 0.288,0 0.556,0.049 0.802,0.147 l -1.202,1.618 1.012,0.737 z m 0.238,-2.364 c -0.744,-0.175 -1.345,-0.263 -1.802,-0.263 -1.326,0 -2.241,0.462 -2.746,1.385 -0.505,0.923 -0.757,2.512 -0.757,4.767 0,2.133 0.103,3.68 0.312,4.641 0.208,0.96 0.586,1.647 1.133,2.061 0.547,0.414 1.306,0.621 2.276,0.621 1.238,0 2.135,-0.426 2.692,-1.278 0.557,-0.851 0.836,-2.699 0.836,-5.544 0,-3.002 -0.333,-4.872 -0.999,-5.61 l 0.978,-1.34 -0.974,-0.718 z" style="fill:#a38a7b;fill-opacity:1;fill-rule:nonzero;stroke:none" id="path114"/>
        </g>
        <g id="g116" transform="translate(296.2921,146.4996)">
          <path d="m 0,0 c 0,-2.181 -0.978,-3.271 -2.932,-3.271 -2.147,0 -3.22,1.083 -3.22,3.251 v 9.977 h 1.744 V 0.719 c 0,-0.992 0.085,-1.677 0.256,-2.057 0.171,-0.379 0.543,-0.568 1.117,-0.568 0.574,0 0.933,0.199 1.077,0.599 0.144,0.4 0.216,1.109 0.216,2.127 V 9.957 H 0 Z" style="fill:#a38a7b;fill-opacity:1;fill-rule:nonzero;stroke:none" id="path118"/>
        </g>
        <path d="m 307.512,156.477 h 1.764 v -13.063 h -1.764 z" style="fill:#a38a7b;fill-opacity:1;fill-rule:nonzero;stroke:none" id="path120"/>
        <g id="g122" transform="translate(325.4483,154.9898)">
          <path d="M 0,0 H -2 V -11.576 H -3.764 V 0 H -5.753 V 1.487 H 0 Z" style="fill:#a38a7b;fill-opacity:1;fill-rule:nonzero;stroke:none" id="path124"/>
        </g>
        <g id="g126" transform="translate(340.38,143.4137)">
          <path d="m 0,0 h -4.727 v 13.063 h 4.645 V 11.576 H -2.984 V 7.434 h 2.687 V 5.947 H -2.984 V 1.445 H 0 Z" style="fill:#a38a7b;fill-opacity:1;fill-rule:nonzero;stroke:none" id="path128"/>
        </g>
        <g id="g130" transform="translate(356.2452,143.6393)">
          <path d="m 0,0 c -0.526,-0.253 -1.053,-0.38 -1.579,-0.38 -1.053,0 -1.964,0.407 -2.733,1.222 -0.769,0.814 -1.153,2.513 -1.153,5.099 0,2.806 0.384,4.694 1.153,5.665 0.769,0.972 1.701,1.457 2.794,1.457 0.411,0 0.916,-0.068 1.518,-0.205 v -1.599 c -0.396,0.157 -0.77,0.236 -1.117,0.236 -0.685,0 -1.269,-0.348 -1.754,-1.042 C -3.356,9.758 -3.6,8.388 -3.6,6.342 -3.6,5.124 -3.546,4.171 -3.44,3.483 -3.334,2.796 -3.09,2.248 -2.707,1.841 -2.324,1.434 -1.843,1.23 -1.262,1.23 -0.92,1.23 -0.499,1.336 0,1.548 Z" style="fill:#a38a7b;fill-opacity:1;fill-rule:nonzero;stroke:none" id="path132"/>
        </g>
        <g id="g134" transform="translate(371.8936,154.9898)">
          <path d="M 0,0 H -1.999 V -11.576 H -3.763 V 0 H -5.752 V 1.487 H 0 Z" style="fill:#a38a7b;fill-opacity:1;fill-rule:nonzero;stroke:none" id="path136"/>
        </g>
        <g id="g138" transform="translate(386.8565,149.8785)">
          <path d="m 0,0 c 0,2.479 -0.146,4.011 -0.437,4.595 -0.292,0.584 -0.729,0.876 -1.311,0.876 -0.686,0 -1.155,-0.35 -1.409,-1.05 -0.254,-0.7 -0.38,-1.88 -0.38,-3.539 V 0.164 c 0,-1.851 0.102,-3.201 0.308,-4.052 0.206,-0.849 0.699,-1.274 1.481,-1.274 0.479,0 0.891,0.238 1.233,0.717 C -0.172,-3.968 0,-2.646 0,-0.481 Z m -5.383,0.103 c 0,2.835 0.279,4.668 0.835,5.501 0.558,0.834 1.475,1.251 2.753,1.251 1.463,0 2.436,-0.466 2.918,-1.399 0.481,-0.933 0.723,-2.61 0.723,-5.035 0,-2.173 -0.108,-3.679 -0.324,-4.519 -0.214,-0.84 -0.587,-1.459 -1.117,-1.854 -0.53,-0.397 -1.25,-0.595 -2.159,-0.595 -0.936,0 -1.654,0.183 -2.152,0.548 -0.5,0.365 -0.87,0.958 -1.114,1.778 -0.242,0.82 -0.363,2.261 -0.363,4.324" style="fill:#a38a7b;fill-opacity:1;fill-rule:nonzero;stroke:none" id="path140"/>
        </g>
        <g id="g142" transform="translate(96.6319,184.0094)">
          <path d="M 0,0 H -3.1 L -4.363,15.918 H -4.441 L -7.832,0 h -2.09 l -3.209,15.918 h -0.098 L -14.536,0 h -3.14 l 2.442,24.883 h 2.904 L -8.867,7.441 h 0.078 l 3.543,17.442 h 2.902 z" style="fill:#342f2e;fill-opacity:1;fill-rule:nonzero;stroke:none" id="path144"/>
        </g>
        <path d="m 116.792,208.892 h 3.359 v -24.883 h -3.359 z" style="fill:#342f2e;fill-opacity:1;fill-rule:nonzero;stroke:none" id="path146"/>
        <g id="g148" transform="translate(150.3897,184.0094)">
          <path d="m 0,0 h -9.004 v 24.883 h 3.359 V 2.793 H 0 Z" style="fill:#342f2e;fill-opacity:1;fill-rule:nonzero;stroke:none" id="path150"/>
        </g>
        <g id="g152" transform="translate(177.7198,208.8874)">
          <path d="m 0,0 h -2.76 l -5.37,-24.88 h 3.2 l 0.49,2.64 2.98,16.61 h 0.08 l 2.64,-14.33 0.31,-1.69 0.6,-3.23 h 3.24 z" style="fill:#342f2e;fill-opacity:1;fill-rule:nonzero;stroke:none" id="path154"/>
        </g>
        <g id="g156" transform="translate(214.7726,192.818)">
          <path d="m 0,0 c 0,-2.864 -0.488,-5.088 -1.465,-6.67 -0.976,-1.582 -2.702,-2.373 -5.176,-2.373 -2.213,0 -3.815,0.817 -4.804,2.451 -0.99,1.634 -1.485,4.776 -1.485,9.424 0,0.547 0.059,2.002 0.176,4.365 0.117,2.364 0.29,3.965 0.518,4.805 0.227,0.84 0.608,1.621 1.142,2.344 0.534,0.722 1.211,1.262 2.031,1.621 0.821,0.358 1.785,0.537 2.891,0.537 1.563,0 2.91,-0.472 4.043,-1.416 1.133,-0.944 1.758,-2.191 1.875,-3.74 l -3.164,-1.153 c -0.261,2.396 -1.179,3.594 -2.754,3.594 -1.211,0 -2.054,-0.622 -2.529,-1.865 C -9.177,10.681 -9.414,8.62 -9.414,5.742 V 4.473 c 0,-1.667 0.052,-3.259 0.156,-4.776 0.105,-1.516 0.202,-2.627 0.293,-3.33 0.091,-0.703 0.28,-1.263 0.567,-1.679 0.286,-0.417 0.588,-0.697 0.908,-0.84 0.319,-0.144 0.693,-0.215 1.123,-0.215 0.807,0 1.432,0.247 1.875,0.742 0.442,0.495 0.749,1.208 0.918,2.139 0.169,0.93 0.254,2.516 0.254,4.756 H -6.367 V 4.199 H 0 Z" style="fill:#342f2e;fill-opacity:1;fill-rule:nonzero;stroke:none" id="path158"/>
        </g>
        <g id="g160" transform="translate(238.0772,197.9742)">
          <path d="M 0,0 C 1.302,0.026 2.243,0.335 2.822,0.928 3.401,1.521 3.691,2.598 3.691,4.16 3.691,5.657 3.428,6.726 2.9,7.363 2.373,8.001 1.472,8.32 0.195,8.32 H 0 Z M 7.676,-13.965 H 4.19 L 0.293,-2.285 H 0 v -11.68 h -3.359 v 24.883 h 4.648 c 3.789,0 5.684,-2.122 5.684,-6.367 0,-1.927 -0.281,-3.379 -0.84,-4.356 -0.56,-0.976 -1.472,-1.712 -2.735,-2.207 z" style="fill:#342f2e;fill-opacity:1;fill-rule:nonzero;stroke:none" id="path162"/>
        </g>
        <g id="g164" transform="translate(275.1124,196.3238)">
          <path d="m 0,0 c 0,4.723 -0.277,7.64 -0.832,8.752 -0.556,1.111 -1.388,1.668 -2.498,1.668 -1.306,0 -2.2,-0.667 -2.684,-2 C -6.497,7.087 -6.738,4.84 -6.738,1.679 V 0.312 c 0,-3.525 0.195,-6.097 0.588,-7.716 0.391,-1.62 1.332,-2.43 2.82,-2.43 0.914,0 1.697,0.455 2.351,1.365 C -0.326,-7.558 0,-5.041 0,-0.917 Z m -10.254,0.195 c 0,5.4 0.53,8.893 1.592,10.481 1.061,1.587 2.809,2.381 5.244,2.381 2.786,0 4.639,-0.888 5.557,-2.664 0.918,-1.777 1.377,-4.974 1.377,-9.592 0,-4.138 -0.205,-7.007 -0.616,-8.608 -0.41,-1.599 -1.12,-2.777 -2.129,-3.532 -1.008,-0.755 -2.379,-1.132 -4.111,-1.132 -1.784,0 -3.151,0.348 -4.101,1.044 -0.951,0.697 -1.658,1.825 -2.12,3.387 -0.461,1.561 -0.693,4.306 -0.693,8.235" style="fill:#342f2e;fill-opacity:1;fill-rule:nonzero;stroke:none" id="path166"/>
        </g>
        <g id="g168" transform="translate(307.4991,205.6891)">
          <path d="m 0,0 c -1.094,0.586 -2.077,0.879 -2.949,0.879 -0.872,0 -1.618,-0.313 -2.237,-0.938 -0.618,-0.625 -0.927,-1.378 -0.927,-2.264 0,-0.625 0.183,-1.292 0.552,-2.001 0.369,-0.71 1.199,-1.845 2.491,-3.405 1.291,-1.56 2.279,-2.914 2.963,-4.06 0.683,-1.148 1.025,-2.463 1.025,-3.948 0,-1.851 -0.557,-3.353 -1.67,-4.506 -1.113,-1.153 -2.568,-1.73 -4.365,-1.73 -0.989,0 -2.2,0.293 -3.633,0.879 v 2.989 c 0.039,-0.013 0.078,-0.033 0.117,-0.059 0.195,-0.144 0.606,-0.361 1.231,-0.654 0.625,-0.293 1.237,-0.44 1.836,-0.44 0.976,0 1.78,0.325 2.412,0.977 0.632,0.651 0.947,1.484 0.947,2.5 0,0.703 -0.161,1.354 -0.482,1.953 -0.322,0.599 -0.906,1.414 -1.75,2.444 l -2.243,2.759 c -0.871,1.07 -1.514,2.048 -1.931,2.934 -0.417,0.886 -0.625,1.942 -0.625,3.167 0,1.811 0.527,3.284 1.582,4.417 1.054,1.133 2.422,1.701 4.101,1.701 1.172,0 2.357,-0.293 3.555,-0.879 z" style="fill:#342f2e;fill-opacity:1;fill-rule:nonzero;stroke:none" id="path170"/>
        </g>
        <g id="g172" transform="translate(359.714,205.6891)">
          <path d="m 0,0 c -1.094,0.586 -2.077,0.879 -2.949,0.879 -0.872,0 -1.618,-0.313 -2.237,-0.938 -0.618,-0.625 -0.927,-1.378 -0.927,-2.264 0,-0.625 0.183,-1.292 0.552,-2.001 0.369,-0.71 1.199,-1.845 2.491,-3.405 1.291,-1.56 2.279,-2.914 2.963,-4.06 0.683,-1.148 1.025,-2.463 1.025,-3.948 0,-1.851 -0.557,-3.353 -1.67,-4.506 -1.113,-1.153 -2.568,-1.73 -4.365,-1.73 -0.989,0 -2.2,0.293 -3.633,0.879 v 2.989 c 0.039,-0.013 0.078,-0.033 0.117,-0.059 0.195,-0.144 0.606,-0.361 1.231,-0.654 0.625,-0.293 1.237,-0.44 1.836,-0.44 0.976,0 1.78,0.325 2.412,0.977 0.632,0.651 0.947,1.484 0.947,2.5 0,0.703 -0.161,1.354 -0.482,1.953 -0.322,0.599 -0.906,1.414 -1.75,2.444 l -2.243,2.759 c -0.871,1.07 -1.514,2.048 -1.931,2.934 -0.417,0.886 -0.625,1.942 -0.625,3.167 0,1.811 0.527,3.284 1.582,4.417 1.054,1.133 2.422,1.701 4.101,1.701 1.172,0 2.357,-0.293 3.555,-0.879 z" style="fill:#342f2e;fill-opacity:1;fill-rule:nonzero;stroke:none" id="path174"/>
        </g>
        <g id="g176" transform="translate(387.8399,208.8874)">
          <path d="m 0,0 h -2.75 l -5.37,-24.88 h 3.2 l 0.71,3.78 h -0.01 l 2.77,15.47 h 0.08 l 2.87,-15.6 0.67,-3.65 h 3.24 z" style="fill:#342f2e;fill-opacity:1;fill-rule:nonzero;stroke:none" id="path178"/>
        </g>
        <g id="g180" transform="translate(424.9561,184.0094)">
          <path d="M 0,0 H -2.637 L -8.984,17.078 -9.063,17.07 V 0 h -3.007 v 24.883 h 2.675 L -3.027,7.808 -2.949,7.793 v 17.09 H 0 Z" style="fill:#342f2e;fill-opacity:1;fill-rule:nonzero;stroke:none" id="path182"/>
        </g>
        <g id="g184" transform="translate(456.171,184.4391)">
          <path d="m 0,0 c -1.003,-0.481 -2.005,-0.723 -3.008,-0.723 -2.005,0 -3.74,0.776 -5.205,2.327 -1.465,1.55 -2.197,4.789 -2.197,9.713 0,5.343 0.732,8.94 2.197,10.79 1.465,1.85 3.239,2.776 5.322,2.776 0.782,0 1.745,-0.13 2.891,-0.391 v -3.047 c -0.755,0.3 -1.465,0.45 -2.129,0.45 -1.302,0 -2.415,-0.663 -3.34,-1.985 -0.925,-1.323 -1.386,-3.932 -1.386,-7.83 0,-2.32 0.1,-4.135 0.302,-5.445 0.202,-1.31 0.667,-2.353 1.397,-3.128 0.729,-0.776 1.647,-1.163 2.754,-1.163 0.651,0 1.452,0.202 2.402,0.605 z" style="fill:#342f2e;fill-opacity:1;fill-rule:nonzero;stroke:none" id="path186"/>
        </g>
        <g id="g188" transform="translate(476.4874,208.8922)">
          <path d="M 0,0 H 3.359 V -9.688 H 8.535 V 0 h 3.36 V -24.883 H 8.535 V -12.52 H 3.359 V -24.883 H 0 Z" style="fill:#342f2e;fill-opacity:1;fill-rule:nonzero;stroke:none" id="path190"/>
        </g>
        <g id="g192" transform="translate(518.171,184.0094)">
          <path d="m 0,0 h -9.004 v 24.883 h 8.848 V 22.051 H -5.684 V 14.16 h 5.118 V 11.328 H -5.684 V 2.754 H 0 Z" style="fill:#342f2e;fill-opacity:1;fill-rule:nonzero;stroke:none" id="path194"/>
        </g>
        <g id="g196" transform="translate(548.8976,208.8922)">
          <path d="m 0,0 -7.905,-22.09 h 7.143 v -2.793 h -11.23 l 7.87,22.051 h -6.913 V 0 Z" style="fill:#342f2e;fill-opacity:1;fill-rule:nonzero;stroke:none" id="path198"/>
        </g>
        <g id="g200" transform="translate(385.2841,210.473)">
          <path d="M 0,0 H 2.476 V 2.188 Z" style="fill:#342f2e;fill-opacity:1;fill-rule:nonzero;stroke:none" id="path202"/>
        </g>
      </g>
    </g>
  </g>
</svg>