<?xml version="1.0" encoding="UTF-8" standalone="no" ?>
<!DOCTYPE svg PUBLIC "-//W3C//DTD SVG 1.1//EN" "http://www.w3.org/Graphics/SVG/1.1/DTD/svg11.dtd">
<svg xmlns="http://www.w3.org/2000/svg" xmlns:xlink="http://www.w3.org/1999/xlink" version="1.1" width="1080" height="1080" viewBox="0 0 1080 1080" xml:space="preserve">
<desc>Created with Fabric.js 5.2.4</desc>
<defs>
</defs>
<g transform="matrix(1 0 0 1 540 540)" id="74b95332-6d34-4f41-a694-c8fcf74b4714"  >
</g>
<g transform="matrix(1 0 0 1 540 540)" id="4a5d1fef-6860-4e64-bd3c-d5654be2b36d"  >
<rect style="stroke: none; stroke-width: 1; stroke-dasharray: none; stroke-linecap: butt; stroke-dashoffset: 0; stroke-linejoin: miter; stroke-miterlimit: 4; fill: rgb(255,255,255); fill-rule: nonzero; opacity: 1; visibility: hidden;" vector-effect="non-scaling-stroke"  x="-540" y="-540" rx="0" ry="0" width="1080" height="1080" />
</g>
<g transform="matrix(3.34 0 0 3.34 539.21 539.58)"  >
<g style="" vector-effect="non-scaling-stroke"   >
		<g transform="matrix(0.67 0 0 -0.67 11.15 -40.02)" clip-path="url(#CLIPPATH_4)"  >
<clipPath id="CLIPPATH_4" >
	<path transform="matrix(1 0 0 1 -6.64 -59.51) translate(-324, -324)" d="M 0 648 L 648 648 L 648 0 L 0 0 Z" stroke-linecap="round" />
</clipPath>
<path style="stroke: none; stroke-width: 1; stroke-dasharray: none; stroke-linecap: butt; stroke-dashoffset: 0; stroke-linejoin: miter; stroke-miterlimit: 4; fill: rgb(255,255,255); fill-rule: nonzero; opacity: 1;" vector-effect="non-scaling-stroke"  transform=" translate(0.35, -0.24)" d="M 0 0 C -0.232 0.169 -0.473 0.337 -0.708 0.487 C -0.465 0.336 -0.233 0.167 0 0" stroke-linecap="round" />
</g>
		<g transform="matrix(0.67 0 0 -0.67 -14.5 -45.22)" clip-path="url(#CLIPPATH_5)"  >
<clipPath id="CLIPPATH_5" >
	<path transform="matrix(1 0 0 1 32.11 -67.88) translate(-324, -324)" d="M 0 648 L 648 648 L 648 0 L 0 0 Z" stroke-linecap="round" />
</clipPath>
<path style="stroke: none; stroke-width: 1; stroke-dasharray: none; stroke-linecap: butt; stroke-dashoffset: 0; stroke-linejoin: miter; stroke-miterlimit: 4; fill: rgb(255,255,255); fill-rule: nonzero; opacity: 1;" vector-effect="non-scaling-stroke"  transform=" translate(39.84, -9.17)" d="M 0 0 C 1.696 -1.375 3.136 -3.059 4.458 -4.39 L 17.598 7.343 L -97.28 122.023 L -97.28 -103.67699999999999 L -79.78 -103.67699999999999 L -79.78 79.22300000000001 L -16.718 17.31 L -16.275 16.746 L 0.401 -0.323 C 0.401 -0.323 0.23800000000000002 -0.188 0 0" stroke-linecap="round" />
</g>
		<g transform="matrix(0.67 0 0 -0.67 21.33 -12.37)" clip-path="url(#CLIPPATH_6)"  >
<clipPath id="CLIPPATH_6" >
	<path transform="matrix(1 0 0 1 -21.68 -18.37) translate(-324, -324)" d="M 0 648 L 648 648 L 648 0 L 0 0 Z" stroke-linecap="round" />
</clipPath>
<path style="stroke: none; stroke-width: 1; stroke-dasharray: none; stroke-linecap: butt; stroke-dashoffset: 0; stroke-linejoin: miter; stroke-miterlimit: 4; fill: rgb(255,255,255); fill-rule: nonzero; opacity: 1;" vector-effect="non-scaling-stroke"  transform=" translate(-15.85, 4.66)" d="M 0 0 L -0.85 1.325 L -13.45 21.2 C -13.825 21.675 -14.125 22.175 -14.399999999999999 22.675 C -15.174999999999999 24.150000000000002 -15.624999999999998 25.85 -15.624999999999998 27.625 C -15.624999999999998 33.5 -10.849999999999998 38.275 -4.974999999999998 38.275 C -4.024999999999998 38.275 -3.074999999999998 38.15 -2.199999999999998 37.9 C -1.303999999999998 37.664 -0.47699999999999787 37.284 0.30000000000000204 36.818 C 0.10100000000000203 36.939 -0.08999999999999797 37.046 -0.248999999999998 37.11 L -17.451 50.722 C -16.628 51.315 -14.370000000000001 52.422000000000004 -14.370000000000001 52.422000000000004 C -23.62 48.24700000000001 -31.575 38.425000000000004 -31.575 27.625000000000004 C -31.575 22.775000000000006 -30.275 18.225 -28 14.300000000000004 L -27.975 14.275000000000004 L -27.950000000000003 14.225000000000003 L -26.800000000000004 12.400000000000004 L -26.775000000000006 12.375000000000004 L -11.925000000000006 -10.999999999999996 C -11.925000000000006 -10.999999999999996 -12.763000000000005 -11.685999999999996 -14.052000000000007 -12.792999999999996 L -11.886000000000006 -10.999999999999996 L -2.9110000000000067 -25.15 C -2.9110000000000067 -25.15 -2.9230000000000067 -25.157 -2.9370000000000065 -25.165999999999997 C -2.6570000000000062 -25.510999999999996 5.699999999999994 -35.861 5.749999999999993 -41.199999999999996 C 5.757999999999993 -42.05 5.649999999999993 -42.9 5.449999999999993 -43.675 C 5.4 -43.95 5.325 -44.2 5.275 -44.45 C 4 -48.925 -0.1 -52.2 -4.975 -52.2 C -7.6499999999999995 -52.2 -10.075 -51.2 -11.95 -49.550000000000004 C -12.225 -49.325 -12.475 -49.1 -12.725 -48.85 C -14.6 -46.975 -15.8 -44.425000000000004 -15.875 -41.550000000000004 C -15.9 -41.45 -15.9 -41.325 -15.9 -41.2 C -15.9 -35.892 -8.815000000000001 -29.656000000000002 -5.127000000000001 -26.770000000000003 C -5.147 -26.785000000000004 -5.163 -26.797000000000004 -5.183000000000001 -26.812000000000005 L -14.075 -12.813000000000004 C -16.716 -15.080000000000004 -21.253999999999998 -19.117000000000004 -24.575 -22.825000000000003 C -29.533 -28.360000000000003 -31.875 -34.1 -31.875 -41.2 C -31.875 -48.725 -28.775 -55.525000000000006 -23.775 -60.375 C -23.474999999999998 -60.7 -23.174999999999997 -60.975 -22.849999999999998 -61.25 C -22.45 -61.6 -22.049999999999997 -61.95 -21.624999999999996 -62.275 C -17.074999999999996 -65.85 -11.324999999999996 -68 -5.074999999999996 -68 C 6.050000000000004 -68 15.575000000000003 -61.25 19.650000000000006 -51.625 C 20.150000000000006 -50.425 20.575000000000006 -49.175 20.900000000000006 -47.9 C 21.375000000000007 -45.875 21.650000000000006 -43.75 21.650000000000006 -41.55 C 21.650000000000006 -35.574999999999996 19.650000000000006 -30.049999999999997 16.325000000000006 -25.599999999999998 L 16.300000000000008 -25.575 L 14.775000000000007 -23.175 L 14.750000000000007 -23.150000000000002 L 9.250000000000007 -14.525000000000002 L 46.07500000000001 17.524999999999995 L 46.07500000000001 -68 L 63.57500000000001 -68 L 63.57500000000001 58.675 Z" stroke-linecap="round" />
</g>
		<g transform="matrix(0.67 0 0 -0.67 1.23 -7.16)" clip-path="url(#CLIPPATH_7)"  >
<clipPath id="CLIPPATH_7" >
	<path transform="matrix(1 0 0 1 0 0) translate(-315.76, -334.23)" clip-path="url(#undefined)" d="M 315.751 334.242 L 315.775 334.242 L 315.775 334.22200000000004 L 315.751 334.22200000000004 z" stroke-linecap="round" />
</clipPath>
<path style="stroke: none; stroke-width: 1; stroke-dasharray: none; stroke-linecap: butt; stroke-dashoffset: 0; stroke-linejoin: miter; stroke-miterlimit: 4; fill: rgb(255,255,255); fill-rule: nonzero; opacity: 0.1;" vector-effect="non-scaling-stroke"  transform=" translate(-0.01, -0.01)" d="M 0 0 L 0 0 C 0.008 0.006 0.016 0.013 0.023 0.019 Z" stroke-linecap="round" />
</g>
		<g transform="matrix(0.67 0 0 -0.67 7.91 1.61)" clip-path="url(#CLIPPATH_8)"  >
<clipPath id="CLIPPATH_8" >
	<path transform="matrix(1 0 0 1 0 0) translate(-325.79, -321.07)" clip-path="url(#undefined)" d="M 324.7 321.884 L 326.89 321.884 L 326.89 320.265 L 324.7 320.265 z" stroke-linecap="round" />
</clipPath>
<path style="stroke: none; stroke-width: 1; stroke-dasharray: none; stroke-linecap: butt; stroke-dashoffset: 0; stroke-linejoin: miter; stroke-miterlimit: 4; fill: rgb(255,255,255); fill-rule: nonzero; opacity: 0.1;" vector-effect="non-scaling-stroke"  transform=" translate(-1.09, -0.81)" d="M 0 0 C 1.401 1.089 2.068 1.525 2.19 1.603 C 2.186 1.609 2.177 1.62 2.177 1.62 C 2.177 1.62 1.297 1.015 0 0" stroke-linecap="round" />
</g>
		<g transform="matrix(0.67 0 0 -0.67 4.96 -3.06)" clip-path="url(#CLIPPATH_9)"  >
<clipPath id="CLIPPATH_9" >
	<path transform="matrix(1 0 0 1 2.67 -4.13) translate(-324, -324)" d="M 0 648 L 648 648 L 648 0 L 0 0 Z" stroke-linecap="round" />
</clipPath>
<path style="stroke: none; stroke-width: 1; stroke-dasharray: none; stroke-linecap: butt; stroke-dashoffset: 0; stroke-linejoin: miter; stroke-miterlimit: 4; fill: rgb(201,196,186); fill-rule: nonzero; opacity: 1;" vector-effect="non-scaling-stroke"  transform=" translate(3.37, -7.86)" d="M 0 0 C 1.297 1.015 2.177 1.62 2.177 1.62 C 2.177 1.62 2.186 1.6090000000000002 2.19 1.6030000000000002 C 2.205 1.612 2.216 1.62 2.216 1.62 L -6.759 15.77 L -8.925 13.977 C -8.932 13.97 -8.94 13.963 -8.948 13.957 L -0.054999999999999716 -0.04299999999999926 C -0.035 -0.027 -0.02 -0.015 0 0" stroke-linecap="round" />
</g>
		<g transform="matrix(0.67 0 0 -0.67 11.63 -39.66)" clip-path="url(#CLIPPATH_10)"  >
<clipPath id="CLIPPATH_10" >
	<path transform="matrix(1 0 0 1 0 0) translate(-331.36, -382.99)" clip-path="url(#undefined)" d="M 330.994 383.27 L 331.73100000000005 383.27 L 331.73100000000005 382.71099999999996 L 330.994 382.71099999999996 z" stroke-linecap="round" />
</clipPath>
<path style="stroke: none; stroke-width: 1; stroke-dasharray: none; stroke-linecap: butt; stroke-dashoffset: 0; stroke-linejoin: miter; stroke-miterlimit: 4; fill: rgb(255,255,255); fill-rule: nonzero; opacity: 0.1;" vector-effect="non-scaling-stroke"  transform=" translate(0.37, -0.28)" d="M 0 0 C -0.24 0.195 -0.486 0.379 -0.738 0.559 C -0.457 0.354 -0.202 0.159 0 0" stroke-linecap="round" />
</g>
		<g transform="matrix(0.67 0 0 -0.67 10.85 -40.21)" clip-path="url(#CLIPPATH_11)"  >
<clipPath id="CLIPPATH_11" >
	<path transform="matrix(1 0 0 1 0 0) translate(-330.21, -383.81)" clip-path="url(#undefined)" d="M 330.127 383.853 L 330.286 383.853 L 330.286 383.757 L 330.127 383.757 z" stroke-linecap="round" />
</clipPath>
<path style="stroke: none; stroke-width: 1; stroke-dasharray: none; stroke-linecap: butt; stroke-dashoffset: 0; stroke-linejoin: miter; stroke-miterlimit: 4; fill: rgb(255,255,255); fill-rule: nonzero; opacity: 0.1;" vector-effect="non-scaling-stroke"  transform=" translate(0.08, -0.05)" d="M 0 0 C -0.052 0.033 -0.105 0.064 -0.158 0.096 C -0.105 0.064 -0.054 0.034 0 0" stroke-linecap="round" />
</g>
		<g transform="matrix(0.67 0 0 -0.67 5.59 -44.92)" clip-path="url(#CLIPPATH_12)"  >
<clipPath id="CLIPPATH_12" >
	<path transform="matrix(1 0 0 1 1.75 -66.92) translate(-324, -324)" d="M 0 648 L 648 648 L 648 0 L 0 0 Z" stroke-linecap="round" />
</clipPath>
<path style="stroke: none; stroke-width: 1; stroke-dasharray: none; stroke-linecap: butt; stroke-dashoffset: 0; stroke-linejoin: miter; stroke-miterlimit: 4; fill: rgb(201,196,186); fill-rule: nonzero; opacity: 1;" vector-effect="non-scaling-stroke"  transform=" translate(7.32, -6.78)" d="M 0 0 C 0.159 -0.064 0.35 -0.171 0.55 -0.292 C 0.6030000000000001 -0.32399999999999995 0.656 -0.355 0.7080000000000001 -0.388 C 0.9430000000000001 -0.537 1.1840000000000002 -0.7050000000000001 1.416 -0.874 C 1.6669999999999998 -1.054 1.914 -1.2389999999999999 2.154 -1.4340000000000002 C 2.391 -1.6210000000000002 2.5549999999999997 -1.7560000000000002 2.5549999999999997 -1.7560000000000002 L -14.120999999999999 15.312000000000001 C -14.120999999999999 15.312000000000001 -16.378999999999998 14.205000000000002 -17.201999999999998 13.612000000000002 z" stroke-linecap="round" />
</g>
		<g transform="matrix(0.67 0 0 -0.67 -47.47 115.72)" clip-path="url(#CLIPPATH_13)"  >
<clipPath id="CLIPPATH_13" >
	<path transform="matrix(1 0 0 1 81.3 174.05) translate(-324, -324)" d="M 0 648 L 648 648 L 648 0 L 0 0 Z" stroke-linecap="round" />
</clipPath>
<path style="stroke: none; stroke-width: 1; stroke-dasharray: none; stroke-linecap: butt; stroke-dashoffset: 0; stroke-linejoin: miter; stroke-miterlimit: 4; fill: rgb(255,255,255); fill-rule: nonzero; opacity: 1;" vector-effect="non-scaling-stroke"  transform=" translate(1.14, -2.63)" d="M 0 0 L -1.147 6.198 L -1.189 6.198 L -2.275 0 Z M 2.413 -3.906 L 0.714 -3.906 L 0.235 -1.322 L -2.529 -1.322 L -3.014 -3.906 L -4.692 -3.906 L -1.8720000000000003 9.157 L -0.42700000000000027 9.157 z" stroke-linecap="round" />
</g>
		<g transform="matrix(0.67 0 0 -0.67 -36.22 115.72)" clip-path="url(#CLIPPATH_14)"  >
<clipPath id="CLIPPATH_14" >
	<path transform="matrix(1 0 0 1 64.42 174.05) translate(-324, -324)" d="M 0 648 L 648 648 L 648 0 L 0 0 Z" stroke-linecap="round" />
</clipPath>
<path style="stroke: none; stroke-width: 1; stroke-dasharray: none; stroke-linecap: butt; stroke-dashoffset: 0; stroke-linejoin: miter; stroke-miterlimit: 4; fill: rgb(255,255,255); fill-rule: nonzero; opacity: 1;" vector-effect="non-scaling-stroke"  transform=" translate(-1.13, 0.8)" d="M 0 0 C 0.683 0.013 1.177 0.176 1.481 0.486 C 1.785 0.798 1.937 1.363 1.937 2.184 C 1.937 2.97 1.799 3.53 1.522 3.865 C 1.245 4.2 0.771 4.367 0.102 4.367 L 0 4.367 Z M 4.029 -7.332 L 2.199 -7.332 L 0.153 -1.2 L 0 -1.2 L 0 -7.332 L -1.764 -7.332 L -1.764 5.731 L 0.6759999999999999 5.731 C 2.666 5.731 3.66 4.617 3.66 2.389 C 3.66 1.377 3.513 0.615 3.219 0.102 C 2.925 -0.41 2.447 -0.797 1.784 -1.057 Z" stroke-linecap="round" />
</g>
		<g transform="matrix(0.67 0 0 -0.67 -25.28 116.02)" clip-path="url(#CLIPPATH_15)"  >
<clipPath id="CLIPPATH_15" >
	<path transform="matrix(1 0 0 1 48.02 174.51) translate(-324, -324)" d="M 0 648 L 648 648 L 648 0 L 0 0 Z" stroke-linecap="round" />
</clipPath>
<path style="stroke: none; stroke-width: 1; stroke-dasharray: none; stroke-linecap: butt; stroke-dashoffset: 0; stroke-linejoin: miter; stroke-miterlimit: 4; fill: rgb(255,255,255); fill-rule: nonzero; opacity: 1;" vector-effect="non-scaling-stroke"  transform=" translate(1.44, -3.6)" d="M 0 0 C 0.203 0.437 0.306 1.723 0.306 3.854 C 0.306 6.377000000000001 0.16799999999999998 7.936 -0.10399999999999998 8.530000000000001 C -0.379 9.125000000000002 -0.823 9.422 -1.4380000000000002 9.422 C -2.129 9.422 -2.595 9.073 -2.838 8.376000000000001 C -3.08 7.679000000000001 -3.202 6.496000000000001 -3.202 4.828000000000001 C -3.202 1.9370000000000012 -3.0629999999999997 0.2090000000000014 -2.785 -0.35499999999999865 C -2.508 -0.9189999999999986 -2.092 -1.2009999999999987 -1.5370000000000001 -1.2009999999999987 C -1.249 -1.2009999999999987 -0.9810000000000001 -1.1519999999999988 -0.7350000000000001 -1.0539999999999987 L -1.937 0.5640000000000014 L -0.925 1.3010000000000015 z M 0.238 -2.364 C -0.506 -2.5389999999999997 -1.107 -2.627 -1.564 -2.627 C -2.89 -2.627 -3.805 -2.1649999999999996 -4.3100000000000005 -1.2419999999999998 C -4.815 -0.31899999999999973 -5.067 1.2700000000000002 -5.067 3.5250000000000004 C -5.067 5.658 -4.964 7.205 -4.755 8.166 C -4.547 9.126000000000001 -4.169 9.813 -3.622 10.227 C -3.0749999999999997 10.641 -2.316 10.848 -1.346 10.848 C -0.1080000000000001 10.848 0.7889999999999997 10.422 1.346 9.57 C 1.903 8.719000000000001 2.182 6.871 2.182 4.026000000000001 C 2.182 1.024000000000001 1.849 -0.8459999999999992 1.1829999999999998 -1.5839999999999996 L 2.1609999999999996 -2.9239999999999995 L 1.1869999999999996 -3.6419999999999995 z" stroke-linecap="round" />
</g>
		<g transform="matrix(0.67 0 0 -0.67 -13.8 115.79)" clip-path="url(#CLIPPATH_16)"  >
<clipPath id="CLIPPATH_16" >
	<path transform="matrix(1 0 0 1 30.78 174.16) translate(-324, -324)" d="M 0 648 L 648 648 L 648 0 L 0 0 Z" stroke-linecap="round" />
</clipPath>
<path style="stroke: none; stroke-width: 1; stroke-dasharray: none; stroke-linecap: butt; stroke-dashoffset: 0; stroke-linejoin: miter; stroke-miterlimit: 4; fill: rgb(255,255,255); fill-rule: nonzero; opacity: 1;" vector-effect="non-scaling-stroke"  transform=" translate(3.08, -3.34)" d="M 0 0 C 0 -2.181 -0.978 -3.271 -2.932 -3.271 C -5.079 -3.271 -6.152 -2.1879999999999997 -6.152 -0.020000000000000018 L -6.152 9.957 L -4.408 9.957 L -4.408 0.719 C -4.408 -0.273 -4.323 -0.9580000000000001 -4.152 -1.338 C -3.9810000000000003 -1.717 -3.609 -1.9060000000000001 -3.035 -1.9060000000000001 C -2.4610000000000003 -1.9060000000000001 -2.1020000000000003 -1.707 -1.9580000000000002 -1.3070000000000002 C -1.8140000000000003 -0.9070000000000001 -1.7420000000000002 -0.19800000000000018 -1.7420000000000002 0.8199999999999996 L -1.7420000000000002 9.957 L 0 9.957 Z" stroke-linecap="round" />
</g>
		<g transform="matrix(0.67 0 0 -0.67 -3.69 115.72)" clip-path="url(#CLIPPATH_17)"  >
<clipPath id="CLIPPATH_17" >
	<path transform="matrix(1 0 0 1 15.61 174.05) translate(-324, -324)" d="M 0 648 L 648 648 L 648 0 L 0 0 Z" stroke-linecap="round" />
</clipPath>
<path style="stroke: none; stroke-width: 1; stroke-dasharray: none; stroke-linecap: butt; stroke-dashoffset: 0; stroke-linejoin: miter; stroke-miterlimit: 4; fill: rgb(255,255,255); fill-rule: nonzero; opacity: 1;" vector-effect="non-scaling-stroke"  transform=" translate(-308.39, -149.95)" d="M 307.512 156.477 L 309.276 156.477 L 309.276 143.41400000000002 L 307.512 143.41400000000002 z" stroke-linecap="round" />
</g>
		<g transform="matrix(0.67 0 0 -0.67 5.78 115.72)" clip-path="url(#CLIPPATH_18)"  >
<clipPath id="CLIPPATH_18" >
	<path transform="matrix(1 0 0 1 1.43 174.05) translate(-324, -324)" d="M 0 648 L 648 648 L 648 0 L 0 0 Z" stroke-linecap="round" />
</clipPath>
<path style="stroke: none; stroke-width: 1; stroke-dasharray: none; stroke-linecap: butt; stroke-dashoffset: 0; stroke-linejoin: miter; stroke-miterlimit: 4; fill: rgb(255,255,255); fill-rule: nonzero; opacity: 1;" vector-effect="non-scaling-stroke"  transform=" translate(2.88, 5.04)" d="M 0 0 L -2 0 L -2 -11.576 L -3.764 -11.576 L -3.764 0 L -5.753 0 L -5.753 1.487 L 0 1.487 Z" stroke-linecap="round" />
</g>
		<g transform="matrix(0.67 0 0 -0.67 16.06 115.72)" clip-path="url(#CLIPPATH_19)"  >
<clipPath id="CLIPPATH_19" >
	<path transform="matrix(1 0 0 1 -14.02 174.05) translate(-324, -324)" d="M 0 648 L 648 648 L 648 0 L 0 0 Z" stroke-linecap="round" />
</clipPath>
<path style="stroke: none; stroke-width: 1; stroke-dasharray: none; stroke-linecap: butt; stroke-dashoffset: 0; stroke-linejoin: miter; stroke-miterlimit: 4; fill: rgb(255,255,255); fill-rule: nonzero; opacity: 1;" vector-effect="non-scaling-stroke"  transform=" translate(2.36, -6.53)" d="M 0 0 L -4.727 0 L -4.727 13.063 L -0.08200000000000074 13.063 L -0.08200000000000074 11.576 L -2.984 11.576 L -2.984 7.434 L -0.29700000000000015 7.434 L -0.29700000000000015 5.947 L -2.984 5.947 L -2.984 1.445 L 0 1.445 Z" stroke-linecap="round" />
</g>
		<g transform="matrix(0.67 0 0 -0.67 26.4 115.69)" clip-path="url(#CLIPPATH_20)"  >
<clipPath id="CLIPPATH_20" >
	<path transform="matrix(1 0 0 1 -29.51 174.02) translate(-324, -324)" d="M 0 648 L 648 648 L 648 0 L 0 0 Z" stroke-linecap="round" />
</clipPath>
<path style="stroke: none; stroke-width: 1; stroke-dasharray: none; stroke-linecap: butt; stroke-dashoffset: 0; stroke-linejoin: miter; stroke-miterlimit: 4; fill: rgb(255,255,255); fill-rule: nonzero; opacity: 1;" vector-effect="non-scaling-stroke"  transform=" translate(2.73, -6.34)" d="M 0 0 C -0.526 -0.253 -1.053 -0.38 -1.579 -0.38 C -2.6319999999999997 -0.38 -3.543 0.02699999999999997 -4.312 0.842 C -5.081 1.656 -5.465 3.355 -5.465 5.941 C -5.465 8.747 -5.0809999999999995 10.635 -4.311999999999999 11.606 C -3.5429999999999993 12.578 -2.6109999999999993 13.063 -1.5179999999999993 13.063 C -1.1069999999999993 13.063 -0.6019999999999993 12.995000000000001 6.661338147750939e-16 12.858 L 6.661338147750939e-16 11.259 C -0.39599999999999935 11.416 -0.7699999999999994 11.495000000000001 -1.1169999999999993 11.495000000000001 C -1.8019999999999994 11.495000000000001 -2.3859999999999992 11.147 -2.8709999999999996 10.453000000000001 C -3.356 9.758 -3.6 8.388 -3.6 6.342 C -3.6 5.124 -3.546 4.171 -3.44 3.483 C -3.334 2.796 -3.09 2.248 -2.707 1.841 C -2.324 1.434 -1.843 1.23 -1.262 1.23 C -0.92 1.23 -0.499 1.336 0 1.548 Z" stroke-linecap="round" />
</g>
		<g transform="matrix(0.67 0 0 -0.67 36.74 115.72)" clip-path="url(#CLIPPATH_21)"  >
<clipPath id="CLIPPATH_21" >
	<path transform="matrix(1 0 0 1 -45.02 174.05) translate(-324, -324)" d="M 0 648 L 648 648 L 648 0 L 0 0 Z" stroke-linecap="round" />
</clipPath>
<path style="stroke: none; stroke-width: 1; stroke-dasharray: none; stroke-linecap: butt; stroke-dashoffset: 0; stroke-linejoin: miter; stroke-miterlimit: 4; fill: rgb(255,255,255); fill-rule: nonzero; opacity: 1;" vector-effect="non-scaling-stroke"  transform=" translate(2.88, 5.04)" d="M 0 0 L -1.999 0 L -1.999 -11.576 L -3.763 -11.576 L -3.763 0 L -5.752 0 L -5.752 1.487 L 0 1.487 Z" stroke-linecap="round" />
</g>
		<g transform="matrix(0.67 0 0 -0.67 47.45 115.66)" clip-path="url(#CLIPPATH_22)"  >
<clipPath id="CLIPPATH_22" >
	<path transform="matrix(1 0 0 1 -61.09 173.97) translate(-324, -324)" d="M 0 648 L 648 648 L 648 0 L 0 0 Z" stroke-linecap="round" />
</clipPath>
<path style="stroke: none; stroke-width: 1; stroke-dasharray: none; stroke-linecap: butt; stroke-dashoffset: 0; stroke-linejoin: miter; stroke-miterlimit: 4; fill: rgb(255,255,255); fill-rule: nonzero; opacity: 1;" vector-effect="non-scaling-stroke"  transform=" translate(1.77, -0.15)" d="M 0 0 C 0 2.479 -0.146 4.011 -0.437 4.595 C -0.729 5.178999999999999 -1.166 5.471 -1.748 5.471 C -2.434 5.471 -2.903 5.121 -3.157 4.421 C -3.411 3.721 -3.537 2.5410000000000004 -3.537 0.8820000000000001 L -3.537 0.164 C -3.537 -1.687 -3.435 -3.037 -3.229 -3.8879999999999995 C -3.023 -4.736999999999999 -2.5300000000000002 -5.161999999999999 -1.748 -5.161999999999999 C -1.2690000000000001 -5.161999999999999 -0.857 -4.9239999999999995 -0.5149999999999999 -4.444999999999999 C -0.172 -3.968 0 -2.646 0 -0.481 Z M -5.383 0.103 C -5.383 2.938 -5.104 4.771 -4.548 5.604 C -3.99 6.438 -3.073 6.855 -1.795 6.855 C -0.33199999999999985 6.855 0.641 6.389 1.1230000000000002 5.456 C 1.604 4.523000000000001 1.846 2.8460000000000005 1.846 0.42100000000000026 C 1.846 -1.7519999999999998 1.738 -3.2579999999999996 1.522 -4.098 C 1.308 -4.938 0.935 -5.557 0.405 -5.952 C -0.125 -6.349 -0.845 -6.547 -1.7539999999999998 -6.547 C -2.69 -6.547 -3.4079999999999995 -6.364 -3.9059999999999997 -5.999 C -4.406 -5.6339999999999995 -4.776 -5.0409999999999995 -5.02 -4.221 C -5.262 -3.4010000000000002 -5.382999999999999 -1.96 -5.382999999999999 0.10299999999999976" stroke-linecap="round" />
</g>
		<g transform="matrix(0.67 0 0 -0.67 -150.73 84.74)" clip-path="url(#CLIPPATH_23)"  >
<clipPath id="CLIPPATH_23" >
	<path transform="matrix(1 0 0 1 236.21 127.55) translate(-324, -324)" d="M 0 648 L 648 648 L 648 0 L 0 0 Z" stroke-linecap="round" />
</clipPath>
<path style="stroke: none; stroke-width: 1; stroke-dasharray: none; stroke-linecap: butt; stroke-dashoffset: 0; stroke-linejoin: miter; stroke-miterlimit: 4; fill: rgb(255,255,255); fill-rule: nonzero; opacity: 1;" vector-effect="non-scaling-stroke"  transform=" translate(8.84, -12.44)" d="M 0 0 L -3.1 0 L -4.363 15.918 L -4.441 15.918 L -7.832 0 L -9.922 0 L -13.131 15.918 L -13.229000000000001 15.918 L -14.536 0 L -17.676 0 L -15.233999999999998 24.883 L -12.329999999999998 24.883 L -8.867 7.441 L -8.789000000000001 7.441 L -5.246000000000001 24.883 L -2.344000000000001 24.883 z" stroke-linecap="round" />
</g>
		<g transform="matrix(0.67 0 0 -0.67 -130.29 84.74)" clip-path="url(#CLIPPATH_24)"  >
<clipPath id="CLIPPATH_24" >
	<path transform="matrix(1 0 0 1 205.53 127.55) translate(-324, -324)" d="M 0 648 L 648 648 L 648 0 L 0 0 Z" stroke-linecap="round" />
</clipPath>
<path style="stroke: none; stroke-width: 1; stroke-dasharray: none; stroke-linecap: butt; stroke-dashoffset: 0; stroke-linejoin: miter; stroke-miterlimit: 4; fill: rgb(255,255,255); fill-rule: nonzero; opacity: 1;" vector-effect="non-scaling-stroke"  transform=" translate(-118.47, -196.45)" d="M 116.792 208.892 L 120.151 208.892 L 120.151 184.009 L 116.792 184.009 z" stroke-linecap="round" />
</g>
		<g transform="matrix(0.67 0 0 -0.67 -112.01 84.74)" clip-path="url(#CLIPPATH_25)"  >
<clipPath id="CLIPPATH_25" >
	<path transform="matrix(1 0 0 1 178.11 127.55) translate(-324, -324)" d="M 0 648 L 648 648 L 648 0 L 0 0 Z" stroke-linecap="round" />
</clipPath>
<path style="stroke: none; stroke-width: 1; stroke-dasharray: none; stroke-linecap: butt; stroke-dashoffset: 0; stroke-linejoin: miter; stroke-miterlimit: 4; fill: rgb(255,255,255); fill-rule: nonzero; opacity: 1;" vector-effect="non-scaling-stroke"  transform=" translate(4.5, -12.44)" d="M 0 0 L -9.004 0 L -9.004 24.883 L -5.645 24.883 L -5.645 2.793 L 0 2.793 Z" stroke-linecap="round" />
</g>
		<g transform="matrix(0.67 0 0 -0.67 -91.68 84.73)" clip-path="url(#CLIPPATH_26)"  >
<clipPath id="CLIPPATH_26" >
	<path transform="matrix(1 0 0 1 147.64 127.55) translate(-324, -324)" d="M 0 648 L 648 648 L 648 0 L 0 0 Z" stroke-linecap="round" />
</clipPath>
<path style="stroke: none; stroke-width: 1; stroke-dasharray: none; stroke-linecap: butt; stroke-dashoffset: 0; stroke-linejoin: miter; stroke-miterlimit: 4; fill: rgb(255,255,255); fill-rule: nonzero; opacity: 1;" vector-effect="non-scaling-stroke"  transform=" translate(1.36, 12.44)" d="M 0 0 L -2.76 0 L -8.129999999999999 -24.88 L -4.929999999999999 -24.88 L -4.439999999999999 -22.24 L -1.4599999999999986 -5.629999999999999 L -1.3799999999999986 -5.629999999999999 L 1.2600000000000016 -19.96 L 1.5700000000000016 -21.650000000000002 L 2.1700000000000017 -24.880000000000003 L 5.410000000000002 -24.880000000000003 z" stroke-linecap="round" />
</g>
		<g transform="matrix(0.67 0 0 -0.67 -70.39 84.67)" clip-path="url(#CLIPPATH_27)"  >
<clipPath id="CLIPPATH_27" >
	<path transform="matrix(1 0 0 1 115.69 127.45) translate(-324, -324)" d="M 0 648 L 648 648 L 648 0 L 0 0 Z" stroke-linecap="round" />
</clipPath>
<path style="stroke: none; stroke-width: 1; stroke-dasharray: none; stroke-linecap: butt; stroke-dashoffset: 0; stroke-linejoin: miter; stroke-miterlimit: 4; fill: rgb(255,255,255); fill-rule: nonzero; opacity: 1;" vector-effect="non-scaling-stroke"  transform=" translate(6.46, -3.73)" d="M 0 0 C 0 -2.864 -0.488 -5.088 -1.465 -6.67 C -2.441 -8.252 -4.167 -9.043 -6.641 -9.043 C -8.854 -9.043 -10.456 -8.225999999999999 -11.445 -6.591999999999999 C -12.435 -4.957999999999998 -12.93 -1.815999999999999 -12.93 2.8320000000000007 C -12.93 3.379000000000001 -12.871 4.8340000000000005 -12.754 7.197000000000001 C -12.636999999999999 9.561 -12.464 11.162 -12.235999999999999 12.002 C -12.008999999999999 12.842 -11.627999999999998 13.623000000000001 -11.094 14.346 C -10.559999999999999 15.068 -9.883 15.608 -9.062999999999999 15.967 C -8.241999999999999 16.325 -7.277999999999999 16.504 -6.171999999999999 16.504 C -4.608999999999999 16.504 -3.2619999999999987 16.032 -2.1289999999999987 15.088000000000001 C -0.9959999999999987 14.144000000000002 -0.37099999999999866 12.897000000000002 -0.25399999999999867 11.348 L -3.417999999999999 10.195 C -3.678999999999999 12.591000000000001 -4.596999999999999 13.789 -6.171999999999999 13.789 C -7.382999999999999 13.789 -8.225999999999999 13.167 -8.700999999999999 11.924 C -9.177 10.681 -9.414 8.62 -9.414 5.742 L -9.414 4.473 C -9.414 2.806 -9.362 1.214 -9.258 -0.30299999999999994 C -9.152999999999999 -1.819 -9.056 -2.9299999999999997 -8.965 -3.633 C -8.874 -4.336 -8.685 -4.896 -8.398 -5.312 C -8.112 -5.729 -7.81 -6.009 -7.489999999999999 -6.152 C -7.170999999999999 -6.296 -6.797 -6.367 -6.366999999999999 -6.367 C -5.559999999999999 -6.367 -4.934999999999999 -6.12 -4.491999999999999 -5.625 C -4.049999999999999 -5.13 -3.742999999999999 -4.417 -3.573999999999999 -3.486 C -3.404999999999999 -2.556 -3.319999999999999 -0.9700000000000002 -3.319999999999999 1.27 L -6.367 1.27 L -6.367 4.199 L 0 4.199 Z" stroke-linecap="round" />
</g>
		<g transform="matrix(0.67 0 0 -0.67 -49.11 84.74)" clip-path="url(#CLIPPATH_28)"  >
<clipPath id="CLIPPATH_28" >
	<path transform="matrix(1 0 0 1 83.76 127.55) translate(-324, -324)" d="M 0 648 L 648 648 L 648 0 L 0 0 Z" stroke-linecap="round" />
</clipPath>
<path style="stroke: none; stroke-width: 1; stroke-dasharray: none; stroke-linecap: butt; stroke-dashoffset: 0; stroke-linejoin: miter; stroke-miterlimit: 4; fill: rgb(255,255,255); fill-rule: nonzero; opacity: 1;" vector-effect="non-scaling-stroke"  transform=" translate(-2.16, 1.52)" d="M 0 0 C 1.302 0.026 2.243 0.335 2.822 0.928 C 3.401 1.521 3.691 2.598 3.691 4.16 C 3.691 5.657 3.428 6.726 2.9 7.363 C 2.373 8.001 1.472 8.32 0.195 8.32 L 0 8.32 Z M 7.676 -13.965 L 4.19 -13.965 L 0.293 -2.285 L 0 -2.285 L 0 -13.965 L -3.359 -13.965 L -3.359 10.918 L 1.2889999999999997 10.918 C 5.077999999999999 10.918 6.973 8.796 6.973 4.550999999999999 C 6.973 2.623999999999999 6.692 1.1719999999999993 6.133 0.1949999999999994 C 5.573 -0.7810000000000006 4.661 -1.5170000000000006 3.398 -2.0120000000000005 z" stroke-linecap="round" />
</g>
		<g transform="matrix(0.67 0 0 -0.67 -28.1 84.62)" clip-path="url(#CLIPPATH_29)"  >
<clipPath id="CLIPPATH_29" >
	<path transform="matrix(1 0 0 1 52.26 127.38) translate(-324, -324)" d="M 0 648 L 648 648 L 648 0 L 0 0 Z" stroke-linecap="round" />
</clipPath>
<path style="stroke: none; stroke-width: 1; stroke-dasharray: none; stroke-linecap: butt; stroke-dashoffset: 0; stroke-linejoin: miter; stroke-miterlimit: 4; fill: rgb(255,255,255); fill-rule: nonzero; opacity: 1;" vector-effect="non-scaling-stroke"  transform=" translate(3.37, -0.29)" d="M 0 0 C 0 4.723 -0.277 7.64 -0.832 8.752 C -1.388 9.863000000000001 -2.2199999999999998 10.42 -3.33 10.42 C -4.636 10.42 -5.53 9.753 -6.014 8.42 C -6.497 7.087 -6.738 4.84 -6.738 1.679 L -6.738 0.312 C -6.738 -3.213 -6.543 -5.785 -6.15 -7.404 C -5.759 -9.024000000000001 -4.8180000000000005 -9.834 -3.3300000000000005 -9.834 C -2.4160000000000004 -9.834 -1.6330000000000005 -9.379 -0.9790000000000005 -8.469 C -0.326 -7.558 0 -5.041 0 -0.917 Z M -10.254 0.195 C -10.254 5.595000000000001 -9.724 9.088000000000001 -8.661999999999999 10.676 C -7.600999999999999 12.263 -5.852999999999999 13.057 -3.4179999999999993 13.057 C -0.6319999999999992 13.057 1.221000000000001 12.169 2.139000000000001 10.393 C 3.0570000000000013 8.616000000000001 3.516000000000001 5.4190000000000005 3.516000000000001 0.8010000000000002 C 3.516000000000001 -3.3369999999999997 3.311000000000001 -6.2059999999999995 2.900000000000001 -7.807 C 2.4900000000000007 -9.406 1.7800000000000007 -10.584 0.7710000000000008 -11.339 C -0.2369999999999992 -12.094000000000001 -1.6079999999999992 -12.471 -3.339999999999999 -12.471 C -5.123999999999999 -12.471 -6.490999999999999 -12.123 -7.440999999999999 -11.427 C -8.392 -10.73 -9.098999999999998 -9.602 -9.561 -8.04 C -10.022 -6.478999999999999 -10.254 -3.733999999999999 -10.254 0.19500000000000028" stroke-linecap="round" />
</g>
		<g transform="matrix(0.67 0 0 -0.67 -7.04 84.7)" clip-path="url(#CLIPPATH_30)"  >
<clipPath id="CLIPPATH_30" >
	<path transform="matrix(1 0 0 1 20.66 127.5) translate(-324, -324)" d="M 0 648 L 648 648 L 648 0 L 0 0 Z" stroke-linecap="round" />
</clipPath>
<path style="stroke: none; stroke-width: 1; stroke-dasharray: none; stroke-linecap: butt; stroke-dashoffset: 0; stroke-linejoin: miter; stroke-miterlimit: 4; fill: rgb(255,255,255); fill-rule: nonzero; opacity: 1;" vector-effect="non-scaling-stroke"  transform=" translate(4.16, 9.19)" d="M 0 0 C -1.094 0.586 -2.077 0.879 -2.949 0.879 C -3.8209999999999997 0.879 -4.567 0.5660000000000001 -5.186 -0.05899999999999994 C -5.804 -0.6839999999999999 -6.1129999999999995 -1.4369999999999998 -6.1129999999999995 -2.3229999999999995 C -6.1129999999999995 -2.9479999999999995 -5.93 -3.6149999999999993 -5.561 -4.324 C -5.192 -5.034 -4.362 -6.169 -3.07 -7.728999999999999 C -1.779 -9.289 -0.7909999999999999 -10.642999999999999 -0.10699999999999976 -11.788999999999998 C 0.5760000000000003 -12.936999999999998 0.9180000000000001 -14.251999999999999 0.9180000000000001 -15.736999999999998 C 0.9180000000000001 -17.587999999999997 0.3610000000000001 -19.09 -0.7519999999999998 -20.243 C -1.8649999999999998 -21.395999999999997 -3.32 -21.973 -5.117 -21.973 C -6.106 -21.973 -7.317 -21.68 -8.75 -21.093999999999998 L -8.75 -18.104999999999997 C -8.711 -18.118 -8.672 -18.137999999999998 -8.633 -18.163999999999998 C -8.437999999999999 -18.307999999999996 -8.027 -18.525 -7.401999999999999 -18.817999999999998 C -6.776999999999999 -19.110999999999997 -6.164999999999999 -19.258 -5.565999999999999 -19.258 C -4.589999999999999 -19.258 -3.7859999999999987 -18.933 -3.153999999999999 -18.281 C -2.521999999999999 -17.63 -2.206999999999999 -16.796999999999997 -2.206999999999999 -15.780999999999999 C -2.206999999999999 -15.078 -2.367999999999999 -14.427 -2.688999999999999 -13.828 C -3.0109999999999992 -13.229 -3.5949999999999993 -12.414 -4.438999999999999 -11.384 L -6.681999999999999 -8.625 C -7.552999999999999 -7.555 -8.195999999999998 -6.577 -8.613 -5.691 C -9.03 -4.805 -9.238 -3.7489999999999997 -9.238 -2.524 C -9.238 -0.7130000000000001 -8.711 0.7599999999999998 -7.656 1.8929999999999998 C -6.601999999999999 3.026 -5.234 3.594 -3.5549999999999997 3.594 C -2.383 3.594 -1.1979999999999995 3.3009999999999997 4.440892098500626e-16 2.715 z" stroke-linecap="round" />
</g>
		<g transform="matrix(0.67 0 0 -0.67 27.77 84.7)" clip-path="url(#CLIPPATH_31)"  >
<clipPath id="CLIPPATH_31" >
	<path transform="matrix(1 0 0 1 -31.55 127.5) translate(-324, -324)" d="M 0 648 L 648 648 L 648 0 L 0 0 Z" stroke-linecap="round" />
</clipPath>
<path style="stroke: none; stroke-width: 1; stroke-dasharray: none; stroke-linecap: butt; stroke-dashoffset: 0; stroke-linejoin: miter; stroke-miterlimit: 4; fill: rgb(255,255,255); fill-rule: nonzero; opacity: 1;" vector-effect="non-scaling-stroke"  transform=" translate(4.16, 9.19)" d="M 0 0 C -1.094 0.586 -2.077 0.879 -2.949 0.879 C -3.8209999999999997 0.879 -4.567 0.5660000000000001 -5.186 -0.05899999999999994 C -5.804 -0.6839999999999999 -6.1129999999999995 -1.4369999999999998 -6.1129999999999995 -2.3229999999999995 C -6.1129999999999995 -2.9479999999999995 -5.93 -3.6149999999999993 -5.561 -4.324 C -5.192 -5.034 -4.362 -6.169 -3.07 -7.728999999999999 C -1.779 -9.289 -0.7909999999999999 -10.642999999999999 -0.10699999999999976 -11.788999999999998 C 0.5760000000000003 -12.936999999999998 0.9180000000000001 -14.251999999999999 0.9180000000000001 -15.736999999999998 C 0.9180000000000001 -17.587999999999997 0.3610000000000001 -19.09 -0.7519999999999998 -20.243 C -1.8649999999999998 -21.395999999999997 -3.32 -21.973 -5.117 -21.973 C -6.106 -21.973 -7.317 -21.68 -8.75 -21.093999999999998 L -8.75 -18.104999999999997 C -8.711 -18.118 -8.672 -18.137999999999998 -8.633 -18.163999999999998 C -8.437999999999999 -18.307999999999996 -8.027 -18.525 -7.401999999999999 -18.817999999999998 C -6.776999999999999 -19.110999999999997 -6.164999999999999 -19.258 -5.565999999999999 -19.258 C -4.589999999999999 -19.258 -3.7859999999999987 -18.933 -3.153999999999999 -18.281 C -2.521999999999999 -17.63 -2.206999999999999 -16.796999999999997 -2.206999999999999 -15.780999999999999 C -2.206999999999999 -15.078 -2.367999999999999 -14.427 -2.688999999999999 -13.828 C -3.0109999999999992 -13.229 -3.5949999999999993 -12.414 -4.438999999999999 -11.384 L -6.681999999999999 -8.625 C -7.552999999999999 -7.555 -8.195999999999998 -6.577 -8.613 -5.691 C -9.03 -4.805 -9.238 -3.7489999999999997 -9.238 -2.524 C -9.238 -0.7130000000000001 -8.711 0.7599999999999998 -7.656 1.8929999999999998 C -6.601999999999999 3.026 -5.234 3.594 -3.5549999999999997 3.594 C -2.383 3.594 -1.1979999999999995 3.3009999999999997 4.440892098500626e-16 2.715 z" stroke-linecap="round" />
</g>
		<g transform="matrix(0.67 0 0 -0.67 48.39 84.73)" clip-path="url(#CLIPPATH_32)"  >
<clipPath id="CLIPPATH_32" >
	<path transform="matrix(1 0 0 1 -62.48 127.55) translate(-324, -324)" d="M 0 648 L 648 648 L 648 0 L 0 0 Z" stroke-linecap="round" />
</clipPath>
<path style="stroke: none; stroke-width: 1; stroke-dasharray: none; stroke-linecap: butt; stroke-dashoffset: 0; stroke-linejoin: miter; stroke-miterlimit: 4; fill: rgb(255,255,255); fill-rule: nonzero; opacity: 1;" vector-effect="non-scaling-stroke"  transform=" translate(1.36, 12.44)" d="M 0 0 L -2.75 0 L -8.120000000000001 -24.88 L -4.920000000000001 -24.88 L -4.210000000000001 -21.099999999999998 L -4.220000000000001 -21.099999999999998 L -1.4500000000000006 -5.629999999999997 L -1.3700000000000006 -5.629999999999997 L 1.4999999999999996 -21.229999999999997 L 2.1699999999999995 -24.879999999999995 L 5.41 -24.879999999999995 z" stroke-linecap="round" />
</g>
		<g transform="matrix(0.67 0 0 -0.67 70.01 84.74)" clip-path="url(#CLIPPATH_33)"  >
<clipPath id="CLIPPATH_33" >
	<path transform="matrix(1 0 0 1 -94.92 127.55) translate(-324, -324)" d="M 0 648 L 648 648 L 648 0 L 0 0 Z" stroke-linecap="round" />
</clipPath>
<path style="stroke: none; stroke-width: 1; stroke-dasharray: none; stroke-linecap: butt; stroke-dashoffset: 0; stroke-linejoin: miter; stroke-miterlimit: 4; fill: rgb(255,255,255); fill-rule: nonzero; opacity: 1;" vector-effect="non-scaling-stroke"  transform=" translate(6.04, -12.44)" d="M 0 0 L -2.637 0 L -8.984 17.078 L -9.063 17.07 L -9.063 0 L -12.07 0 L -12.07 24.883 L -9.395 24.883 L -3.027 7.808 L -2.949 7.793 L -2.949 24.883 L 0 24.883 Z" stroke-linecap="round" />
</g>
		<g transform="matrix(0.67 0 0 -0.67 91.38 84.69)" clip-path="url(#CLIPPATH_34)"  >
<clipPath id="CLIPPATH_34" >
	<path transform="matrix(1 0 0 1 -126.97 127.48) translate(-324, -324)" d="M 0 648 L 648 648 L 648 0 L 0 0 Z" stroke-linecap="round" />
</clipPath>
<path style="stroke: none; stroke-width: 1; stroke-dasharray: none; stroke-linecap: butt; stroke-dashoffset: 0; stroke-linejoin: miter; stroke-miterlimit: 4; fill: rgb(255,255,255); fill-rule: nonzero; opacity: 1;" vector-effect="non-scaling-stroke"  transform=" translate(5.21, -12.08)" d="M 0 0 C -1.003 -0.481 -2.005 -0.723 -3.008 -0.723 C -5.013 -0.723 -6.748 0.05300000000000005 -8.213000000000001 1.604 C -9.678 3.154 -10.41 6.393 -10.41 11.317 C -10.41 16.66 -9.678 20.256999999999998 -8.213000000000001 22.107 C -6.748000000000001 23.957 -4.974000000000001 24.883 -2.891000000000001 24.883 C -2.109000000000001 24.883 -1.1460000000000008 24.753 -8.881784197001252e-16 24.491999999999997 L -8.881784197001252e-16 21.444999999999997 C -0.7550000000000009 21.744999999999997 -1.465000000000001 21.894999999999996 -2.129000000000001 21.894999999999996 C -3.431000000000001 21.894999999999996 -4.5440000000000005 21.231999999999996 -5.469000000000001 19.909999999999997 C -6.394000000000001 18.586999999999996 -6.855000000000001 15.977999999999996 -6.855000000000001 12.079999999999997 C -6.855000000000001 9.759999999999996 -6.755000000000002 7.944999999999997 -6.553000000000002 6.634999999999996 C -6.351000000000002 5.324999999999996 -5.886000000000002 4.2819999999999965 -5.1560000000000015 3.506999999999996 C -4.427000000000001 2.7309999999999963 -3.5090000000000012 2.343999999999996 -2.4020000000000015 2.343999999999996 C -1.7510000000000014 2.343999999999996 -0.9500000000000015 2.545999999999996 -1.3322676295501878e-15 2.948999999999996 z" stroke-linecap="round" />
</g>
		<g transform="matrix(0.67 0 0 -0.67 112.35 84.74)" clip-path="url(#CLIPPATH_35)"  >
<clipPath id="CLIPPATH_35" >
	<path transform="matrix(1 0 0 1 -158.43 127.55) translate(-324, -324)" d="M 0 648 L 648 648 L 648 0 L 0 0 Z" stroke-linecap="round" />
</clipPath>
<path style="stroke: none; stroke-width: 1; stroke-dasharray: none; stroke-linecap: butt; stroke-dashoffset: 0; stroke-linejoin: miter; stroke-miterlimit: 4; fill: rgb(255,255,255); fill-rule: nonzero; opacity: 1;" vector-effect="non-scaling-stroke"  transform=" translate(-5.95, 12.44)" d="M 0 0 L 3.359 0 L 3.359 -9.688 L 8.535 -9.688 L 8.535 0 L 11.895 0 L 11.895 -24.883 L 8.535 -24.883 L 8.535 -12.52 L 3.359 -12.52 L 3.359 -24.883 L 0 -24.883 Z" stroke-linecap="round" />
</g>
		<g transform="matrix(0.67 0 0 -0.67 133.18 84.74)" clip-path="url(#CLIPPATH_36)"  >
<clipPath id="CLIPPATH_36" >
	<path transform="matrix(1 0 0 1 -189.67 127.55) translate(-324, -324)" d="M 0 648 L 648 648 L 648 0 L 0 0 Z" stroke-linecap="round" />
</clipPath>
<path style="stroke: none; stroke-width: 1; stroke-dasharray: none; stroke-linecap: butt; stroke-dashoffset: 0; stroke-linejoin: miter; stroke-miterlimit: 4; fill: rgb(255,255,255); fill-rule: nonzero; opacity: 1;" vector-effect="non-scaling-stroke"  transform=" translate(4.5, -12.44)" d="M 0 0 L -9.004 0 L -9.004 24.883 L -0.1559999999999988 24.883 L -0.1559999999999988 22.051 L -5.684 22.051 L -5.684 14.16 L -0.5659999999999998 14.16 L -0.5659999999999998 11.328 L -5.684 11.328 L -5.684 2.754 L 0 2.754 Z" stroke-linecap="round" />
</g>
		<g transform="matrix(0.67 0 0 -0.67 152.67 84.74)" clip-path="url(#CLIPPATH_37)"  >
<clipPath id="CLIPPATH_37" >
	<path transform="matrix(1 0 0 1 -218.9 127.55) translate(-324, -324)" d="M 0 648 L 648 648 L 648 0 L 0 0 Z" stroke-linecap="round" />
</clipPath>
<path style="stroke: none; stroke-width: 1; stroke-dasharray: none; stroke-linecap: butt; stroke-dashoffset: 0; stroke-linejoin: miter; stroke-miterlimit: 4; fill: rgb(255,255,255); fill-rule: nonzero; opacity: 1;" vector-effect="non-scaling-stroke"  transform=" translate(6, 12.44)" d="M 0 0 L -7.905 -22.09 L -0.7620000000000005 -22.09 L -0.7620000000000005 -24.883 L -11.992 -24.883 L -4.122000000000001 -2.8320000000000007 L -11.035 -2.8320000000000007 L -11.035 0 Z" stroke-linecap="round" />
</g>
		<g transform="matrix(0.67 0 0 -0.67 48.4 74.62)" clip-path="url(#CLIPPATH_38)"  >
<clipPath id="CLIPPATH_38" >
	<path transform="matrix(1 0 0 1 -62.52 112.43) translate(-324, -324)" d="M 0 648 L 648 648 L 648 0 L 0 0 Z" stroke-linecap="round" />
</clipPath>
<path style="stroke: none; stroke-width: 1; stroke-dasharray: none; stroke-linecap: butt; stroke-dashoffset: 0; stroke-linejoin: miter; stroke-miterlimit: 4; fill: rgb(255,255,255); fill-rule: nonzero; opacity: 1;" vector-effect="non-scaling-stroke"  transform=" translate(-1.24, -1.09)" d="M 0 0 L 2.476 0 L 2.476 2.188 Z" stroke-linecap="round" />
</g>
</g>
</g>
</svg>